# xmcd
#
# Track frame offsets: 
#        150
#        14711
#        31510
#        41424
#        68097
#        86386
#        99619
#        118636
#        131579
#        151395
#        177841
#        199656
#        225726
#
# Disc length: 3164 seconds
#
# Revision: 0
# Processed by: cddbd v1.5.2PL0 Copyright (c) Steve Scherf et al.
# Submitted via: ExactAudioCopy v0.99pb3
#
DISCID=9e0c5a0d
DTITLE=Barrelhouse Chuck - 25 Years Of Chicago Blues Piano Vol. 3
DYEAR=2006
DGENRE=Blues
TTITLE0=Sugar Pie
TTITLE1=Got To Let You Go
TTITLE2=Ann
TTITLE3=That's All Right
TTITLE4=Sail The Seven Sea's
TTITLE5=Barrelhouse Woman
TTITLE6=Porch Light
TTITLE7=Someday
TTITLE8=I Can't Stop Loving You
TTITLE9=Blues After Hours
TTITLE10=Going To Chicago
TTITLE11=Wah-Wah-Blues (Part 2)
TTITLE12=Break It Up
EXTD=
EXTT0=
EXTT1=
EXTT2=
EXTT3=
EXTT4=
EXTT5=
EXTT6=
EXTT7=
EXTT8=
EXTT9=
EXTT10=
EXTT11=
EXTT12=
PLAYORDER=
